<?xml version="1.0" standalone="no"?>
<!DOCTYPE svg PUBLIC "-//W3C//DTD SVG 20010904//EN"
 "http://www.w3.org/TR/2001/REC-SVG-20010904/DTD/svg10.dtd">
<svg version="1.0" xmlns="http://www.w3.org/2000/svg"
 width="1920.000000pt" height="1080.000000pt" viewBox="0 0 1920.000000 1080.000000"
 preserveAspectRatio="xMidYMid meet">

<g transform="translate(0.000000,1080.000000) scale(0.100000,-0.100000)"
fill="#000000" stroke="none">
<path d="M9090 6835 l0 -95 -207 -2 -208 -3 -3 -97 -3 -97 -97 -3 -97 -3 -3
-107 -3 -108 -99 0 -100 0 0 -200 0 -200 -100 0 -100 0 0 -510 0 -510 100 0
100 0 0 -110 0 -110 100 0 100 0 0 -200 0 -200 100 0 100 0 0 -100 0 -100 110
0 110 0 0 -105 0 -105 710 0 710 0 0 105 0 105 110 0 110 0 0 100 0 99 98 3
97 3 3 198 2 197 100 0 100 0 0 110 0 110 100 0 100 0 0 510 0 510 -100 0
-100 0 0 200 0 200 -100 0 -99 0 -3 108 -3 107 -97 3 -97 3 -3 97 -3 97 -207
3 -208 2 0 95 0 95 -510 0 -510 0 0 -95z m200 -195 l0 -100 100 0 100 0 0
-110 0 -110 -100 0 -100 0 0 -100 0 -100 -100 0 -100 0 0 100 0 100 -100 0
-100 0 0 110 0 110 100 0 100 0 0 100 0 100 100 0 100 0 0 -100z m1240 -210
l0 -110 100 0 100 0 0 -100 0 -100 -100 0 -100 0 0 -100 0 -100 -110 0 -110 0
0 100 0 100 -100 0 -100 0 0 100 0 100 100 0 100 0 0 110 0 110 110 0 110 0 0
-110z m-1640 -410 l0 -100 100 0 100 0 0 -100 0 -100 -100 0 -100 0 0 -110 0
-110 -110 0 -110 0 0 110 0 110 -100 0 -100 0 0 100 0 100 100 0 100 0 0 100
0 100 110 0 110 0 0 -100z m1020 0 l0 -100 100 0 100 0 0 -100 0 -100 -100 0
-100 0 0 -110 0 -110 -100 0 -99 0 -3 108 -3 107 -107 3 -108 3 0 99 0 100
110 0 110 0 0 100 0 100 100 0 100 0 0 -100z m1020 -610 l0 -310 -105 0 -105
0 0 100 0 100 -100 0 -100 0 0 100 0 100 100 0 100 0 0 110 0 110 105 0 105 0
0 -310z m-2450 -410 l0 -100 -105 0 -105 0 0 100 0 100 105 0 105 0 0 -100z
m1830 0 l0 -100 110 0 110 0 0 -310 0 -310 -110 0 -110 0 0 -100 0 -100 -710
0 -710 0 0 100 0 100 -110 0 -110 0 0 310 0 310 110 0 110 0 0 100 0 100 710
0 710 0 0 -100z"/>
<path d="M9090 4790 l0 -110 100 0 99 0 3 -97 3 -98 98 -3 97 -3 0 211 0 210
-200 0 -200 0 0 -110z"/>
<path d="M9710 4790 l0 -110 100 0 100 0 0 -100 0 -101 98 3 97 3 3 208 2 207
-200 0 -200 0 0 -110z"/>
</g>
</svg>
