<?xml version="1.0" standalone="no"?>
<!DOCTYPE svg PUBLIC "-//W3C//DTD SVG 20010904//EN"
 "http://www.w3.org/TR/2001/REC-SVG-20010904/DTD/svg10.dtd">
<svg version="1.0" xmlns="http://www.w3.org/2000/svg"
 width="320.000000pt" height="320.000000pt" viewBox="0 0 320.000000 320.000000"
 preserveAspectRatio="xMidYMid meet">

<g transform="translate(0.000000,320.000000) scale(0.100000,-0.100000)"
fill="#000000" stroke="none">
<path d="M1600 2600 l0 -100 -50 0 -50 0 0 -50 0 -50 -100 0 -100 0 0 -50 0
-50 -50 0 -50 0 0 -450 0 -450 -200 0 -200 0 0 150 0 150 -100 0 -100 0 0
-150 0 -150 -150 0 -150 0 0 -400 0 -400 50 0 50 0 0 -50 0 -50 50 0 50 0 0
-50 0 -50 50 0 50 0 0 50 0 50 50 0 50 0 0 50 0 50 50 0 50 0 0 300 0 300 200
0 200 0 0 -150 0 -150 50 0 50 0 0 -100 0 -100 50 0 50 0 0 -50 0 -50 50 0 50
0 0 -50 0 -50 50 0 50 0 0 -200 0 -200 50 0 50 0 0 200 0 200 50 0 50 0 0 50
0 50 50 0 50 0 0 50 0 50 50 0 50 0 0 100 0 100 50 0 50 0 0 150 0 150 200 0
200 0 0 -300 0 -300 50 0 50 0 0 -50 0 -50 50 0 50 0 0 -50 0 -50 50 0 50 0 0
50 0 50 50 0 50 0 0 50 0 50 50 0 50 0 0 400 0 400 -150 0 -150 0 0 150 0 150
-100 0 -100 0 0 -150 0 -150 -200 0 -200 0 0 450 0 450 -50 0 -50 0 0 50 0 50
-100 0 -100 0 0 50 0 50 -50 0 -50 0 0 100 0 100 -50 0 -50 0 0 -100z m300
-700 l0 -200 -250 0 -250 0 0 200 0 200 250 0 250 0 0 -200z"/>
</g>
</svg>
